# xmcd
# 
# Track frame offsets:
#     150
#     22237
#     43947
#     66592
#     87110
#     106457
#     130162
#     150790
#     172517
#     196842
#     216517
#     239237
#     265307
#     285187
#     307507
#     327125
# 
# Disc length: 4641
# 
# Revision: 1
# Processed by: cddbd v1.5.2PL0 Copyright (c) Steve Scherf et al.
# Submitted via: fre:ac v1.0.17
# 
DISCID=d9121f10
DTITLE=中西圭三 - SINGLES II
DYEAR=2000
DGENRE=JPop
TTITLE0=Woman
TTITLE1=Ticket To Paradise
TTITLE2=You And I
TTITLE3=眠れぬ想い
TTITLE4=非情階段-Radio Mix -(Featuring 米倉利紀)
TTITLE5=新しい僕になろう
TTITLE6=SO BAD
TTITLE7=Why Goodbye-Single Mix-(Duet with Wendy Moten)
TTITLE8=MUST BE HEAVEN
TTITLE9=Happy Ever After
TTITLE10=次の夢
TTITLE11=What I Do For Love-Full Length Version-(Duet with Peabo Bryson)
TTITLE12=All I Wanna Do(Duet with Christina)
TTITLE13=愛はいま
TTITLE14=願い
TTITLE15=Love Me Or Let Me Go(Duet with Brenda Russell)
EXTD=
EXTT0=
EXTT1=
EXTT2=
EXTT3=
EXTT4=
EXTT5=
EXTT6=
EXTT7=
EXTT8=
EXTT9=
EXTT10=
EXTT11=
EXTT12=
EXTT13=
EXTT14=
EXTT15=
PLAYORDER=
